# xmcd
#
# Track frame offsets: 
#        150
#        13670
#        26714
#        41375
#        56016
#        69023
#        82011
#        86064
#        91642
#        100706
#        113332
#        126147
#        141339
#        152888
#        163658
#        176648
#        196404
#        208478
#        228399
#        246704
#        258629
#        271269
#        283495
#        294137
#        309716
#        323816
#
# Disc length: 4428 seconds
#
# Revision: 3
# Processed by: cddbd v1.5.2PL0 Copyright (c) Steve Scherf et al.
# Submitted via: ExactAudioCopy v1.0b1
#
DISCID=7a114a1a
DTITLE=Bo Diddley - Road Runner - The Chess Masters 1959-1960 - Disc 1
DYEAR=2008
DGENRE=R&B
TTITLE0=Mama Mia
TTITLE1=Bucket (take 1)
TTITLE2=Bucket (take 5)
TTITLE3=What Do You Know About Love
TTITLE4=Lazy Woman (alt - take 1)
TTITLE5=Lazy Woman (master - take 3)
TTITLE6=Come On Baby (alt - take 2)
TTITLE7=Come On Baby (alt - take 3 - inst)
TTITLE8=Come On Baby (master - take 4)
TTITLE9=Nursery Rhyme (Puttentang)
TTITLE10=Mumblin' Guitar
TTITLE11=James' Instrumental
TTITLE12=Silly Willy
TTITLE13=I Love You So (version 2) (The Beat)
TTITLE14=Story Of Bo Diddley
TTITLE15=She's Alright (unedited)
TTITLE16=She's Alright (alt)
TTITLE17=She's Alright (Mindy Lou) (alt)
TTITLE18=She's Alright
TTITLE19=Darling Tell Me - Previously Unreleased
TTITLE20=Limbo (Limber) (alt)
TTITLE21=Limbo (Limber)
TTITLE22=Gonna Tell It Like It Is
TTITLE23=Say Man, Back Again (alt)
TTITLE24=Say Man, Back Again
TTITLE25=Jungle
EXTD=YEAR: 2008
EXTT0=
EXTT1=
EXTT2=
EXTT3=
EXTT4=
EXTT5=
EXTT6=
EXTT7=
EXTT8=
EXTT9=
EXTT10=
EXTT11=
EXTT12=
EXTT13=
EXTT14=
EXTT15=
EXTT16=
EXTT17=
EXTT18=
EXTT19=
EXTT20=
EXTT21=
EXTT22=
EXTT23=
EXTT24=
EXTT25=
PLAYORDER=
